<svg xmlns="http://www.w3.org/2000/svg" id="Layer_1" viewBox="0 0 174 40"><style>.st0{fill:#FFFFFF;} .st1{fill:#88BDDF;} .st2{fill:#59A3D2;}</style><path d="M46.7 28c-.1-.3-.4-.5-.7-.4-.8.4-2.3.7-3.4.7-5.4 0-7.7-4.3-7.7-9 0-4.1 1.6-8.1 6.3-8.1 1.7 0 2.7.4 2.9 1.5l.3 1.8c.1.3.3.4.5.4h1.3c.3 0 .5-.2.5-.5v-5c0-.3-.2-.5-.4-.6-1.2-.3-3.2-.5-4.3-.5-7 0-12.2 4.5-12.2 11.6 0 6.7 4.9 11.6 11.8 11.6 2.2 0 4.5-.7 5.4-1.1.2-.1.3-.4.2-.7-.1.1-.5-1.7-.5-1.7zm13-2c0 1.3-1 2.7-2.8 2.7-1.5 0-2.6-1-2.6-2.4 0-1.8 1.3-3.2 5.1-3.2.2 0 .3.1.3.3V26zm6.3 3c0-.3-.2-.4-.5-.4-.3.1-.5.1-.8.1-.6 0-.8-.4-.8-1V20c0-4.5-2.6-6.2-6.7-6.2-2 0-4.1.4-5.6 1-.3.1-.4.4-.3.7l.4 2c.1.4.4.4.7.3.9-.5 2.2-.9 3.6-.9 2.1 0 3.7.8 3.7 2.8v.7c0 .2-.1.5-.3.5-5 0-9.3 1.6-9.3 6.2 0 2.7 1.9 4.7 4.9 4.7 2.6 0 4-1.2 5.1-2.3h.1c.1 1.3.8 2.3 2.6 2.3 1.1 0 2.6-.3 3.1-.5.2-.1.3-.2.3-.5L66 29zm8.1-9.3c0-1.6 1.3-2.7 3-2.7 2.7 0 3.8 2.7 3.8 5.5s-1 5.9-4.2 5.9c-1.7 0-2.6-.8-2.6-2.2v-6.5zm2.5 18c.3 0 .5-.2.5-.5v-.8c0-.2-.1-.5-.4-.5l-2-.3c-.3-.1-.6-.4-.6-1V31c.4 0 1.2.1 1.8.1 6.2 0 9.6-3.8 9.6-9.5 0-4.7-2.7-7.8-6.5-7.8-2.5 0-4 1.3-5.2 2.5h-.1l-.2-1.8c0-.3-.2-.6-.6-.5l-5.3.5c-.3 0-.5.2-.5.5v.8c0 .2.1.4.4.5l1.5.2c.5.1.7.7.7 1.1v17c0 .7-.3 1-.6 1l-1.3.4c-.3.1-.4.3-.4.5v.8c0 .3.2.5.5.5l8.7-.1zm22.3-9.3c0-.3-.3-.4-.6-.4-.7.2-1.3.4-2 .4-1.8 0-2.8-1.2-2.8-3v-7.8c0-.2.2-.4.5-.4h4.1c.1 0 .2-.2.2-.3v-2c0-.1-.1-.3-.2-.3H94c-.2 0-.4-.2-.4-.4v-3.5c0-.4-.1-.6-.5-.5l-3.2 1c-.4.1-.5.4-.5.8v2.1c0 .3 0 .5-.4.5h-2c-.1 0-.2.2-.2.3l-.2 1.9c0 .3 0 .4.2.4H89c.2 0 .4.1.4.4v8.8c0 3.3 2.3 5.2 5.5 5.2 1.3 0 3-.3 4.1-.8.2-.1.3-.3.3-.6l-.4-1.8zm12.1-9.8c0 2.3-2.2 3.1-4.4 3.1-.5 0-1 0-1.3-.1-.3 0-.4-.1-.4-.4-.1-2.1 1-5.1 3.6-5.1 1.4-.1 2.5 1.1 2.5 2.5m3.5 9.2c-.1-.3-.4-.5-.7-.3-.8.4-2 1-3.7 1-2.3 0-4.8-1.5-5-4.1 0-.3.1-.4.4-.4.7 0 1.4.1 2.2.1 3.4 0 7.6-1.5 7.6-5.3 0-3.3-3-5.1-6.2-5.1-4.7 0-8.6 3.7-8.6 8.9 0 5.3 3 9 8.9 9 1.8 0 3.8-.5 5.2-1.3.2-.1.4-.4.3-.7l-.4-1.8zm12.3 3.4c.3 0 .5-.2.5-.5v-.8c0-.2-.1-.4-.4-.5l-2-.3c-.3 0-.6-.4-.6-1v-7.6c0-1.7 1.5-2.8 3.1-2.8.6 0 1.5.1 2 .3.3.1.6-.1.7-.3l.7-3.1c.1-.4 0-.6-.2-.7-.4-.2-1-.3-1.5-.3-2.1 0-3.6 1.4-4.9 3.2h-.1l-.3-2.5c0-.4-.2-.6-.5-.6l-5.3.6c-.3 0-.5.2-.5.5v.8c0 .2.1.4.4.5l1.6.3c.5.1.7.7.7 1.1V28c0 .7-.3 1-.6 1l-1.4.3c-.3.1-.4.3-.4.5v.8c0 .3.2.5.5.5-.2.1 8.5.1 8.5.1zm14.5 0c.3 0 .5-.2.5-.5v-.8c0-.2-.1-.4-.4-.5l-2-.3c-.3 0-.6-.4-.6-1v-7.6c0-1.7 1.5-2.8 3.1-2.8.6 0 1.5.1 2 .3.3.1.6-.1.7-.3l.7-3.1c.1-.4 0-.6-.2-.7-.4-.2-1-.3-1.5-.3-2.1 0-3.6 1.4-4.9 3.2h-.1l-.3-2.5c0-.4-.2-.6-.5-.6l-5.3.6c-.3 0-.5.2-.5.5v.8c0 .2.1.4.4.5l1.6.3c.5.1.7.7.7 1.1V28c0 .7-.3 1-.6 1l-1.4.3c-.3.1-.4.3-.4.5v.8c0 .3.2.5.5.5-.1.1 8.5.1 8.5.1zm15.3-5.2c0 1.3-1 2.7-2.8 2.7-1.5 0-2.6-1-2.6-2.4 0-1.8 1.3-3.2 5.1-3.2.2 0 .3.1.3.3V26zm6.3 3c0-.3-.2-.4-.5-.4-.3.1-.5.1-.8.1-.6 0-.9-.4-.9-1V20c0-4.5-2.6-6.2-6.7-6.2-2 0-4.1.4-5.6 1-.3.1-.4.4-.3.7l.4 2c.1.4.4.4.7.3.9-.5 2.2-.9 3.6-.9 2.1 0 3.7.8 3.7 2.8v.7c0 .2-.1.5-.3.5-5.1 0-9.3 1.6-9.3 6.2 0 2.7 1.9 4.7 4.9 4.7 2.6 0 4-1.2 5-2.3h.1c.1 1.3.9 2.3 2.6 2.3 1.1 0 2.6-.3 3.1-.5.2-.1.3-.2.3-.5V29z" class="st0"/><path d="M.4 18.9h5.8c.2 0 .4-.1.4-.3.6-2.3 2.6-4 5-4s4.5 1.6 5 4c0 .2.2.3.4.3h5.8c.2 0 .4-.2.4-.4v-.4c-.3-3.9-3.3-11-11.3-18-.2-.1-.4-.1-.6 0-.1.1-8.2 7.1-10.8 16-.2.5-.3.9-.4 1.3 0 0 0 .1-.1.4l-.1.6c0 .1 0 .2.1.3.2.1.3.2.4.2z" class="st1"/><path d="M22.8 21.1H17c-.2 0-.4.1-.4.3-.6 2.3-2.6 4-5 4s-4.5-1.6-5-4c0-.2-.2-.3-.4-.3H.4c-.2 0-.4.2-.4.4v.4c.3 3.9 3.4 11 11.3 18 .2.1.4.1.6 0 .1-.1 8.2-7.1 10.8-16 .2-.5.3-.9.4-1.3 0 0 0-.1.1-.4l.1-.6c0-.1 0-.2-.1-.3-.1-.1-.3-.2-.4-.2z" class="st2"/><path d="M163.3 10.2c0-.4.1-.8.2-1.2s.3-.7.4-1c.2-.3.4-.6.7-.9.3-.3.6-.5.9-.7.3-.2.7-.3 1-.4.4-.1.8-.2 1.2-.2.4 0 .8.1 1.2.2.4.1.7.3 1 .4.3.2.6.4.9.7.3.3.5.6.7.9.2.3.3.7.4 1s.2.8.2 1.2c0 .4-.1.8-.2 1.2s-.3.7-.4 1-.4.6-.7.9c-.3.3-.6.5-.9.7-.3.2-.7.3-1 .4-.4.1-.8.2-1.2.2-.4 0-.8-.1-1.2-.2-.4-.1-.7-.3-1-.4-.3-.2-.6-.4-.9-.7-.3-.3-.5-.6-.7-.9s-.3-.7-.4-1-.2-.8-.2-1.2zm.6 0c0 .4 0 .7.1 1 .1.3.2.6.4.9s.4.5.6.8c.2.2.5.4.8.6.3.2.6.3.9.4.3.1.7.1 1 .1.5 0 1-.1 1.5-.3s.9-.5 1.2-.8c.3-.3.6-.8.8-1.2.2-.5.3-1 .3-1.5 0-.4 0-.7-.1-1-.1-.3-.2-.6-.4-.9-.2-.3-.4-.5-.6-.8s-.5-.4-.8-.6c-.3-.2-.6-.3-.9-.4-.3-.1-.7-.1-1-.1-.5 0-1 .1-1.5.3-.5.2-.9.5-1.2.8-.3.4-.6.8-.8 1.2-.2.4-.3.9-.3 1.5zm2.9.5v2.1h-.9V7.5h1.7c.7 0 1.2.1 1.5.4.3.3.5.6.5 1.1 0 .4-.1.7-.3 1s-.5.4-1 .5c.1 0 .1.1.2.2 0 .1.1.1.1.2l1.4 2h-.9c-.1 0-.2 0-.3-.2l-1.2-1.8c0-.1-.1-.1-.1-.1h-.7zm0-.7h.7c.2 0 .4 0 .6-.1.2 0 .3-.1.4-.2.1-.1.2-.2.2-.3 0-.1.1-.2.1-.4 0-.1 0-.3-.1-.4 0-.1-.1-.2-.2-.3-.1-.1-.2-.1-.3-.2-.1 0-.3-.1-.5-.1h-.8v2z" class="st0"/></svg>